<?xml version="1.0" standalone="no"?><!DOCTYPE svg PUBLIC "-//W3C//DTD SVG 1.1//EN" "http://www.w3.org/Graphics/SVG/1.1/DTD/svg11.dtd"><svg t="1649400228001" class="icon" viewBox="0 0 1024 1024" version="1.1" xmlns="http://www.w3.org/2000/svg" p-id="4547" xmlns:xlink="http://www.w3.org/1999/xlink" width="32" height="32"><defs><style type="text/css">@font-face { font-family: feedback-iconfont; src: url("//at.alicdn.com/t/font_1031158_u69w8yhxdu.woff2?t=1630033759944") format("woff2"), url("//at.alicdn.com/t/font_1031158_u69w8yhxdu.woff?t=1630033759944") format("woff"), url("//at.alicdn.com/t/font_1031158_u69w8yhxdu.ttf?t=1630033759944") format("truetype"); }
</style></defs><path d="M832 928H192c-52.8 0-96-43.2-96-96V352c0-52.8 43.2-96 96-96h96v-64c0-52.8 43.2-96 96-96h448c52.8 0 96 43.2 96 96v640c0 52.8-43.2 96-96 96zM192 320c-17.6 0-32 14.4-32 32v480c0 17.6 14.4 32 32 32h640c17.6 0 32-14.4 32-32V192c0-17.6-14.4-32-32-32H384c-17.6 0-32 14.4-32 32v544c0 17.6-14.4 32-32 32s-32-14.4-32-32V320h-96z m544 352H480c-17.6 0-32-14.4-32-32s14.4-32 32-32h256c17.6 0 32 14.4 32 32s-14.4 32-32 32z m0-256H480c-17.6 0-32-14.4-32-32s14.4-32 32-32h256c17.6 0 32 14.4 32 32s-14.4 32-32 32z" p-id="4548"></path></svg>