<svg xmlns="http://www.w3.org/2000/svg" xmlns:xlink="http://www.w3.org/1999/xlink" width="15px" height="17px" viewBox="0 0 15 17" version="1.1">
     <path d="M14.07341,17 L2.92648376,17 C2.62864741,17 2.38720334,16.7621513 2.38720334,16.46875 C2.38720334,16.1753487 2.62864741,15.9375 2.92648376,15.9375 L13.921333,15.9375 L13.921333,1.0625 L3.07856084,1.0625 L3.07856084,14.2173125 C3.07856084,14.5107138 2.83711677,14.7485625 2.53928042,14.7485625 C2.24144407,14.7485625 2,14.5107138 2,14.2173125 L2,0.939250004 C2,0.42075 2.41524593,0 2.92648376,0 L14.07341,0 C14.5846479,0 15,0.42075 15,0.939250004 L15,16.0596875 C15.0036403,16.3054185 14.9081272,16.5425484 14.7343719,16.7188972 C14.5606165,16.895246 14.3228564,16.9963639 14.07341,17 L14.07341,17 Z" id="路径"/>
                <path d="M2.7589134,17 L0.819949058,17 C0.353140905,17 0,16.5774869 0,16.0177942 L0,3.98220585 C0,3.42251314 0.352037358,3 0.819949058,3 L1.25475381,3 C1.55949497,3 1.80653649,3.24566957 1.80653649,3.54871835 C1.80653649,3.85176712 1.55949497,4.0974367 1.25475381,4.0974367 L1.10797962,4.0974367 L1.10356536,15.9025633 L2.7589134,15.9025633 C3.06365457,15.9025633 3.31069609,16.1482329 3.31069609,16.4512816 C3.31069609,16.7543304 3.06365457,17 2.7589134,17 Z M11.8964346,7.6948342 L5.82682512,7.6948342 C5.2187606,7.6948342 4.72325976,7.20208512 4.72325976,6.5973975 L4.72325976,4.95124246 C4.72325976,4.34655483 5.21876061,3.85380576 5.82682512,3.85380576 L11.8964346,3.85380576 C12.5056027,3.85380576 13,4.34655485 13,4.95124246 L13,6.5973975 C13,7.20208513 12.5056027,7.6948342 11.8964346,7.6948342 Z M11.9378071,6.5973975 L11.9378071,7.14611585 L11.9378071,6.5973975 Z M5.82572155,4.95124246 L5.82572155,6.5973975 L11.8953311,6.5973975 L11.8964346,4.95124246 L5.82572155,4.95124246 Z M12.1701188,10.4153798 L5.54872666,10.4153798 C5.2439855,10.4153798 4.99694398,10.1697102 4.99694398,9.86666144 C4.99694398,9.56361266 5.2439855,9.31794309 5.54872666,9.31794309 L12.1701188,9.31794309 C12.47486,9.31794309 12.7219015,9.56361266 12.7219015,9.86666144 C12.7219015,10.1697102 12.47486,10.4153798 12.1701188,10.4153798 L12.1701188,10.4153798 Z M12.1701188,12.6102532 L5.54872666,12.6102532 C5.24398551,12.6102532 4.99694401,12.3645836 4.99694401,12.0615348 C4.99694401,11.7584861 5.24398551,11.5128165 5.54872666,11.5128165 L12.1701188,11.5128165 C12.47486,11.5128165 12.7219015,11.7584861 12.7219015,12.0615348 C12.7219015,12.3645836 12.47486,12.6102532 12.1701188,12.6102532 L12.1701188,12.6102532 Z" id="形状"/>
           
</svg>